<?xml version="1.0" encoding="UTF-8" standalone="no"?>
<!DOCTYPE svg PUBLIC "-//W3C//DTD SVG 1.1//EN"
 "http://www.w3.org/Graphics/SVG/1.1/DTD/svg11.dtd">
<!-- Generated by graphviz version 2.47.0 (20210316.0004)
 -->
<!-- Title: dependencies Pages: 1 -->
<svg width="2778pt" height="284pt"
 viewBox="0.00 0.00 2778.00 284.00" xmlns="http://www.w3.org/2000/svg" xmlns:xlink="http://www.w3.org/1999/xlink">
<g id="graph0" class="graph" transform="scale(1 1) rotate(0) translate(4 280)">
<title>dependencies</title>
<polygon fill="white" stroke="transparent" points="-4,4 -4,-280 2774,-280 2774,4 -4,4"/>
<text text-anchor="start" x="1364.01" y="-42.4" font-family="Times-12" font-weight="bold" font-size="14.00">Legend</text>
<polygon fill="#ffffb3" stroke="transparent" points="1151,-10 1151,-30 1171,-30 1171,-10 1151,-10"/>
<text text-anchor="start" x="1174.63" y="-15.4" font-family="Times-12" font-size="14.00"> &#160;Declarations</text>
<polygon fill="#8dd3c7" stroke="transparent" points="1264,-10 1264,-30 1284,-30 1284,-10 1264,-10"/>
<text text-anchor="start" x="1287.73" y="-15.4" font-family="Times-12" font-size="14.00"> &#160;Module</text>
<polygon fill="#80b1d3" stroke="transparent" points="1350,-10 1350,-30 1370,-30 1370,-10 1350,-10"/>
<text text-anchor="start" x="1373.78" y="-15.4" font-family="Times-12" font-size="14.00"> &#160;Bootstrap</text>
<polygon fill="#fdb462" stroke="transparent" points="1447,-10 1447,-30 1467,-30 1467,-10 1447,-10"/>
<text text-anchor="start" x="1470.67" y="-15.4" font-family="Times-12" font-size="14.00"> &#160;Providers</text>
<polygon fill="#fb8072" stroke="transparent" points="1543,-10 1543,-30 1563,-30 1563,-10 1543,-10"/>
<text text-anchor="start" x="1566.73" y="-15.4" font-family="Times-12" font-size="14.00"> &#160;Exports</text>
<g id="clust1" class="cluster">
<title>cluster_AppModule</title>
<polygon fill="none" stroke="black" stroke-dasharray="1,5" points="8,-70 8,-268 2762,-268 2762,-70 8,-70"/>
</g>
<g id="clust2" class="cluster">
<title>cluster_AppModule_declarations</title>
<polygon fill="none" stroke="black" points="418,-78 418,-130 2754,-130 2754,-78 418,-78"/>
</g>
<g id="clust19" class="cluster">
<title>cluster_AppModule_imports</title>
<polygon fill="none" stroke="black" points="266,-78 266,-130 410,-130 410,-78 266,-78"/>
</g>
<g id="clust21" class="cluster">
<title>cluster_AppModule_bootstrap</title>
<polygon fill="none" stroke="black" points="1381,-208 1381,-260 1505,-260 1505,-208 1381,-208"/>
</g>
<g id="clust22" class="cluster">
<title>cluster_AppModule_providers</title>
<polygon fill="none" stroke="black" points="16,-78 16,-130 258,-130 258,-78 16,-78"/>
</g>
<!-- AboutComponent -->
<g id="node1" class="node">
<title>AboutComponent</title>
<polygon fill="#ffffb3" stroke="black" points="2746.33,-122 2629.67,-122 2629.67,-86 2746.33,-86 2746.33,-122"/>
<text text-anchor="middle" x="2688" y="-99.8" font-family="Times,serif" font-size="14.00">AboutComponent</text>
</g>
<!-- AppModule -->
<g id="node17" class="node">
<title>AppModule</title>
<polygon fill="#8dd3c7" stroke="black" points="1484.66,-187 1481.66,-191 1460.66,-191 1457.66,-187 1401.34,-187 1401.34,-151 1484.66,-151 1484.66,-187"/>
<text text-anchor="middle" x="1443" y="-164.8" font-family="Times,serif" font-size="14.00">AppModule</text>
</g>
<!-- AboutComponent&#45;&gt;AppModule -->
<g id="edge1" class="edge">
<title>AboutComponent&#45;&gt;AppModule</title>
<path fill="none" stroke="black" d="M2688,-122.32C2688,-145.66 2688,-183 2688,-183 2688,-183 1494.78,-183 1494.78,-183"/>
<polygon fill="black" stroke="black" points="1494.78,-179.5 1484.78,-183 1494.78,-186.5 1494.78,-179.5"/>
</g>
<!-- AppComponent -->
<g id="node2" class="node">
<title>AppComponent</title>
<polygon fill="#ffffb3" stroke="black" points="2611.94,-122 2506.06,-122 2506.06,-86 2611.94,-86 2611.94,-122"/>
<text text-anchor="middle" x="2559" y="-99.8" font-family="Times,serif" font-size="14.00">AppComponent</text>
</g>
<!-- AppComponent&#45;&gt;AppModule -->
<g id="edge2" class="edge">
<title>AppComponent&#45;&gt;AppModule</title>
<path fill="none" stroke="black" d="M2559,-122.16C2559,-144.35 2559,-179 2559,-179 2559,-179 1494.71,-179 1494.71,-179"/>
<polygon fill="black" stroke="black" points="1494.71,-175.5 1484.71,-179 1494.71,-182.5 1494.71,-175.5"/>
</g>
<!-- BrandComponent -->
<g id="node3" class="node">
<title>BrandComponent</title>
<polygon fill="#ffffb3" stroke="black" points="2488.55,-122 2373.45,-122 2373.45,-86 2488.55,-86 2488.55,-122"/>
<text text-anchor="middle" x="2431" y="-99.8" font-family="Times,serif" font-size="14.00">BrandComponent</text>
</g>
<!-- BrandComponent&#45;&gt;AppModule -->
<g id="edge3" class="edge">
<title>BrandComponent&#45;&gt;AppModule</title>
<path fill="none" stroke="black" d="M2431,-122.28C2431,-143.32 2431,-175 2431,-175 2431,-175 1494.82,-175 1494.82,-175"/>
<polygon fill="black" stroke="black" points="1494.82,-171.5 1484.82,-175 1494.82,-178.5 1494.82,-171.5"/>
</g>
<!-- CategoriesComponent -->
<g id="node4" class="node">
<title>CategoriesComponent</title>
<polygon fill="#ffffb3" stroke="black" points="2355.7,-122 2214.3,-122 2214.3,-86 2355.7,-86 2355.7,-122"/>
<text text-anchor="middle" x="2285" y="-99.8" font-family="Times,serif" font-size="14.00">CategoriesComponent</text>
</g>
<!-- CategoriesComponent&#45;&gt;AppModule -->
<g id="edge4" class="edge">
<title>CategoriesComponent&#45;&gt;AppModule</title>
<path fill="none" stroke="black" d="M2285,-122.31C2285,-142.15 2285,-171 2285,-171 2285,-171 1494.75,-171 1494.75,-171"/>
<polygon fill="black" stroke="black" points="1494.75,-167.5 1484.75,-171 1494.75,-174.5 1494.75,-167.5"/>
</g>
<!-- FeaturedproductsComponent -->
<g id="node5" class="node">
<title>FeaturedproductsComponent</title>
<polygon fill="#ffffb3" stroke="black" points="2196.02,-122 2017.98,-122 2017.98,-86 2196.02,-86 2196.02,-122"/>
<text text-anchor="middle" x="2107" y="-99.8" font-family="Times,serif" font-size="14.00">FeaturedproductsComponent</text>
</g>
<!-- FeaturedproductsComponent&#45;&gt;AppModule -->
<g id="edge5" class="edge">
<title>FeaturedproductsComponent&#45;&gt;AppModule</title>
<path fill="none" stroke="black" d="M2107,-122.22C2107,-140.83 2107,-167 2107,-167 2107,-167 1494.79,-167 1494.79,-167"/>
<polygon fill="black" stroke="black" points="1494.79,-163.5 1484.79,-167 1494.79,-170.5 1494.79,-163.5"/>
</g>
<!-- FooterComponent -->
<g id="node6" class="node">
<title>FooterComponent</title>
<polygon fill="#ffffb3" stroke="black" points="1999.88,-122 1882.12,-122 1882.12,-86 1999.88,-86 1999.88,-122"/>
<text text-anchor="middle" x="1941" y="-99.8" font-family="Times,serif" font-size="14.00">FooterComponent</text>
</g>
<!-- FooterComponent&#45;&gt;AppModule -->
<g id="edge6" class="edge">
<title>FooterComponent&#45;&gt;AppModule</title>
<path fill="none" stroke="black" d="M1941,-122.02C1941,-139.37 1941,-163 1941,-163 1941,-163 1495.03,-163 1495.03,-163"/>
<polygon fill="black" stroke="black" points="1495.03,-159.5 1485.03,-163 1495.03,-166.5 1495.03,-159.5"/>
</g>
<!-- HomeComponent -->
<g id="node7" class="node">
<title>HomeComponent</title>
<polygon fill="#ffffb3" stroke="black" points="1863.55,-122 1748.45,-122 1748.45,-86 1863.55,-86 1863.55,-122"/>
<text text-anchor="middle" x="1806" y="-99.8" font-family="Times,serif" font-size="14.00">HomeComponent</text>
</g>
<!-- HomeComponent&#45;&gt;AppModule -->
<g id="edge7" class="edge">
<title>HomeComponent&#45;&gt;AppModule</title>
<path fill="none" stroke="black" d="M1806,-122.01C1806,-138.05 1806,-159 1806,-159 1806,-159 1495,-159 1495,-159"/>
<polygon fill="black" stroke="black" points="1495,-155.5 1485,-159 1495,-162.5 1495,-155.5"/>
</g>
<!-- LoaderComponent -->
<g id="node8" class="node">
<title>LoaderComponent</title>
<polygon fill="#ffffb3" stroke="black" points="1730.47,-122 1609.53,-122 1609.53,-86 1730.47,-86 1730.47,-122"/>
<text text-anchor="middle" x="1670" y="-99.8" font-family="Times,serif" font-size="14.00">LoaderComponent</text>
</g>
<!-- LoaderComponent&#45;&gt;AppModule -->
<g id="edge8" class="edge">
<title>LoaderComponent&#45;&gt;AppModule</title>
<path fill="none" stroke="black" d="M1670,-122.12C1670,-136.78 1670,-155 1670,-155 1670,-155 1494.9,-155 1494.9,-155"/>
<polygon fill="black" stroke="black" points="1494.9,-151.5 1484.9,-155 1494.9,-158.5 1494.9,-151.5"/>
</g>
<!-- MainSliderComponent -->
<g id="node9" class="node">
<title>MainSliderComponent</title>
<polygon fill="#ffffb3" stroke="black" points="1591.32,-122 1446.68,-122 1446.68,-86 1591.32,-86 1591.32,-122"/>
<text text-anchor="middle" x="1519" y="-99.8" font-family="Times,serif" font-size="14.00">MainSliderComponent</text>
</g>
<!-- MainSliderComponent&#45;&gt;AppModule -->
<g id="edge9" class="edge">
<title>MainSliderComponent&#45;&gt;AppModule</title>
<path fill="none" stroke="black" d="M1465.83,-122.11C1465.83,-122.11 1465.83,-140.99 1465.83,-140.99"/>
<polygon fill="black" stroke="black" points="1462.33,-140.99 1465.83,-150.99 1469.33,-140.99 1462.33,-140.99"/>
</g>
<!-- NavbarComponent -->
<g id="node10" class="node">
<title>NavbarComponent</title>
<polygon fill="#ffffb3" stroke="black" points="1429.03,-122 1306.97,-122 1306.97,-86 1429.03,-86 1429.03,-122"/>
<text text-anchor="middle" x="1368" y="-99.8" font-family="Times,serif" font-size="14.00">NavbarComponent</text>
</g>
<!-- NavbarComponent&#45;&gt;AppModule -->
<g id="edge10" class="edge">
<title>NavbarComponent&#45;&gt;AppModule</title>
<path fill="none" stroke="black" d="M1415.22,-122.11C1415.22,-122.11 1415.22,-140.99 1415.22,-140.99"/>
<polygon fill="black" stroke="black" points="1411.72,-140.99 1415.22,-150.99 1418.72,-140.99 1411.72,-140.99"/>
</g>
<!-- NotFoundComponent -->
<g id="node11" class="node">
<title>NotFoundComponent</title>
<polygon fill="#ffffb3" stroke="black" points="1289.11,-122 1150.89,-122 1150.89,-86 1289.11,-86 1289.11,-122"/>
<text text-anchor="middle" x="1220" y="-99.8" font-family="Times,serif" font-size="14.00">NotFoundComponent</text>
</g>
<!-- NotFoundComponent&#45;&gt;AppModule -->
<g id="edge11" class="edge">
<title>NotFoundComponent&#45;&gt;AppModule</title>
<path fill="none" stroke="black" d="M1220,-122.12C1220,-136.78 1220,-155 1220,-155 1220,-155 1391.32,-155 1391.32,-155"/>
<polygon fill="black" stroke="black" points="1391.32,-158.5 1401.32,-155 1391.32,-151.5 1391.32,-158.5"/>
</g>
<!-- ProductDetailsComponent -->
<g id="node12" class="node">
<title>ProductDetailsComponent</title>
<polygon fill="#ffffb3" stroke="black" points="1133.03,-122 968.97,-122 968.97,-86 1133.03,-86 1133.03,-122"/>
<text text-anchor="middle" x="1051" y="-99.8" font-family="Times,serif" font-size="14.00">ProductDetailsComponent</text>
</g>
<!-- ProductDetailsComponent&#45;&gt;AppModule -->
<g id="edge12" class="edge">
<title>ProductDetailsComponent&#45;&gt;AppModule</title>
<path fill="none" stroke="black" d="M1051,-122.01C1051,-138.05 1051,-159 1051,-159 1051,-159 1391.05,-159 1391.05,-159"/>
<polygon fill="black" stroke="black" points="1391.05,-162.5 1401.05,-159 1391.05,-155.5 1391.05,-162.5"/>
</g>
<!-- ProductitemComponent -->
<g id="node13" class="node">
<title>ProductitemComponent</title>
<polygon fill="#ffffb3" stroke="black" points="950.77,-122 801.23,-122 801.23,-86 950.77,-86 950.77,-122"/>
<text text-anchor="middle" x="876" y="-99.8" font-family="Times,serif" font-size="14.00">ProductitemComponent</text>
</g>
<!-- ProductitemComponent&#45;&gt;AppModule -->
<g id="edge13" class="edge">
<title>ProductitemComponent&#45;&gt;AppModule</title>
<path fill="none" stroke="black" d="M876,-122.02C876,-139.37 876,-163 876,-163 876,-163 1391.31,-163 1391.31,-163"/>
<polygon fill="black" stroke="black" points="1391.31,-166.5 1401.31,-163 1391.31,-159.5 1391.31,-166.5"/>
</g>
<!-- SearchPipe -->
<g id="node14" class="node">
<title>SearchPipe</title>
<polygon fill="#ffffb3" stroke="black" points="783.47,-122 704.53,-122 704.53,-86 783.47,-86 783.47,-122"/>
<text text-anchor="middle" x="744" y="-99.8" font-family="Times,serif" font-size="14.00">SearchPipe</text>
</g>
<!-- SearchPipe&#45;&gt;AppModule -->
<g id="edge14" class="edge">
<title>SearchPipe&#45;&gt;AppModule</title>
<path fill="none" stroke="black" d="M744,-122.22C744,-140.83 744,-167 744,-167 744,-167 1391.11,-167 1391.11,-167"/>
<polygon fill="black" stroke="black" points="1391.11,-170.5 1401.11,-167 1391.11,-163.5 1391.11,-170.5"/>
</g>
<!-- SignInComponent -->
<g id="node15" class="node">
<title>SignInComponent</title>
<polygon fill="#ffffb3" stroke="black" points="686.17,-122 567.83,-122 567.83,-86 686.17,-86 686.17,-122"/>
<text text-anchor="middle" x="627" y="-99.8" font-family="Times,serif" font-size="14.00">SignInComponent</text>
</g>
<!-- SignInComponent&#45;&gt;AppModule -->
<g id="edge15" class="edge">
<title>SignInComponent&#45;&gt;AppModule</title>
<path fill="none" stroke="black" d="M627,-122.31C627,-142.15 627,-171 627,-171 627,-171 1391.13,-171 1391.13,-171"/>
<polygon fill="black" stroke="black" points="1391.13,-174.5 1401.13,-171 1391.13,-167.5 1391.13,-174.5"/>
</g>
<!-- SignUpComponent -->
<g id="node16" class="node">
<title>SignUpComponent</title>
<polygon fill="#ffffb3" stroke="black" points="550.11,-122 425.89,-122 425.89,-86 550.11,-86 550.11,-122"/>
<text text-anchor="middle" x="488" y="-99.8" font-family="Times,serif" font-size="14.00">SignUpComponent</text>
</g>
<!-- SignUpComponent&#45;&gt;AppModule -->
<g id="edge16" class="edge">
<title>SignUpComponent&#45;&gt;AppModule</title>
<path fill="none" stroke="black" d="M488,-122.28C488,-143.32 488,-175 488,-175 488,-175 1391.04,-175 1391.04,-175"/>
<polygon fill="black" stroke="black" points="1391.04,-178.5 1401.04,-175 1391.04,-171.5 1391.04,-178.5"/>
</g>
<!-- AppComponent  -->
<g id="node19" class="node">
<title>AppComponent </title>
<polygon fill="#80b1d3" stroke="black" points="1497.44,-252 1388.56,-252 1388.56,-216 1497.44,-216 1497.44,-252"/>
<text text-anchor="middle" x="1443" y="-229.8" font-family="Times,serif" font-size="14.00">AppComponent </text>
</g>
<!-- AppModule&#45;&gt;AppComponent  -->
<g id="edge18" class="edge">
<title>AppModule&#45;&gt;AppComponent </title>
<path fill="none" stroke="black" stroke-dasharray="1,5" d="M1443,-187.11C1443,-187.11 1443,-205.99 1443,-205.99"/>
<polygon fill="black" stroke="black" points="1439.5,-205.99 1443,-215.99 1446.5,-205.99 1439.5,-205.99"/>
</g>
<!-- AppRoutingModule -->
<g id="node18" class="node">
<title>AppRoutingModule</title>
<polygon fill="#8dd3c7" stroke="black" points="402.27,-122 399.27,-126 378.27,-126 375.27,-122 273.73,-122 273.73,-86 402.27,-86 402.27,-122"/>
<text text-anchor="middle" x="338" y="-99.8" font-family="Times,serif" font-size="14.00">AppRoutingModule</text>
</g>
<!-- AppRoutingModule&#45;&gt;AppModule -->
<g id="edge17" class="edge">
<title>AppRoutingModule&#45;&gt;AppModule</title>
<path fill="none" stroke="black" d="M338,-122.16C338,-144.35 338,-179 338,-179 338,-179 1391.03,-179 1391.03,-179"/>
<polygon fill="black" stroke="black" points="1391.03,-182.5 1401.03,-179 1391.03,-175.5 1391.03,-182.5"/>
</g>
<!-- HttpInterceptorInterceptor -->
<g id="node20" class="node">
<title>HttpInterceptorInterceptor</title>
<ellipse fill="#fdb462" stroke="black" cx="137" cy="-104" rx="112.84" ry="18"/>
<text text-anchor="middle" x="137" y="-99.8" font-family="Times,serif" font-size="14.00">HttpInterceptorInterceptor</text>
</g>
<!-- HttpInterceptorInterceptor&#45;&gt;AppModule -->
<g id="edge19" class="edge">
<title>HttpInterceptorInterceptor&#45;&gt;AppModule</title>
<path fill="none" stroke="black" d="M137,-122.32C137,-145.66 137,-183 137,-183 137,-183 1391.03,-183 1391.03,-183"/>
<polygon fill="black" stroke="black" points="1391.03,-186.5 1401.03,-183 1391.03,-179.5 1391.03,-186.5"/>
</g>
</g>
</svg>
