<?xml version="1.0" encoding="UTF-8" standalone="no"?>
<!DOCTYPE svg PUBLIC "-//W3C//DTD SVG 1.1//EN"
 "http://www.w3.org/Graphics/SVG/1.1/DTD/svg11.dtd">
<!-- Generated by graphviz version 2.47.0 (20210316.0004)
 -->
<!-- Title: dependencies Pages: 1 -->
<svg width="586pt" height="211pt"
 viewBox="0.00 0.00 586.00 211.00" xmlns="http://www.w3.org/2000/svg" xmlns:xlink="http://www.w3.org/1999/xlink">
<g id="graph0" class="graph" transform="scale(1 1) rotate(0) translate(4 207)">
<title>dependencies</title>
<polygon fill="white" stroke="transparent" points="-4,4 -4,-207 582,-207 582,4 -4,4"/>
<text text-anchor="start" x="268.01" y="-42.4" font-family="Times-12" font-weight="bold" font-size="14.00">Legend</text>
<polygon fill="#ffffb3" stroke="transparent" points="55,-10 55,-30 75,-30 75,-10 55,-10"/>
<text text-anchor="start" x="78.63" y="-15.4" font-family="Times-12" font-size="14.00"> &#160;Declarations</text>
<polygon fill="#8dd3c7" stroke="transparent" points="168,-10 168,-30 188,-30 188,-10 168,-10"/>
<text text-anchor="start" x="191.73" y="-15.4" font-family="Times-12" font-size="14.00"> &#160;Module</text>
<polygon fill="#80b1d3" stroke="transparent" points="254,-10 254,-30 274,-30 274,-10 254,-10"/>
<text text-anchor="start" x="277.78" y="-15.4" font-family="Times-12" font-size="14.00"> &#160;Bootstrap</text>
<polygon fill="#fdb462" stroke="transparent" points="351,-10 351,-30 371,-30 371,-10 351,-10"/>
<text text-anchor="start" x="374.67" y="-15.4" font-family="Times-12" font-size="14.00"> &#160;Providers</text>
<polygon fill="#fb8072" stroke="transparent" points="447,-10 447,-30 467,-30 467,-10 447,-10"/>
<text text-anchor="start" x="470.73" y="-15.4" font-family="Times-12" font-size="14.00"> &#160;Exports</text>
<g id="clust1" class="cluster">
<title>cluster_SettingModule</title>
<polygon fill="none" stroke="black" stroke-dasharray="1,5" points="8,-70 8,-195 570,-195 570,-70 8,-70"/>
</g>
<g id="clust2" class="cluster">
<title>cluster_SettingModule_declarations</title>
<polygon fill="none" stroke="black" points="184,-78 184,-130 562,-130 562,-78 184,-78"/>
</g>
<g id="clust5" class="cluster">
<title>cluster_SettingModule_imports</title>
<polygon fill="none" stroke="black" points="16,-78 16,-130 176,-130 176,-78 16,-78"/>
</g>
<!-- ChangePasswordComponent -->
<g id="node1" class="node">
<title>ChangePasswordComponent</title>
<polygon fill="#ffffb3" stroke="black" points="553.75,-122 376.25,-122 376.25,-86 553.75,-86 553.75,-122"/>
<text text-anchor="middle" x="465" y="-99.8" font-family="Times,serif" font-size="14.00">ChangePasswordComponent</text>
</g>
<!-- SettingModule -->
<g id="node3" class="node">
<title>SettingModule</title>
<polygon fill="#8dd3c7" stroke="black" points="324.72,-187 321.72,-191 300.72,-191 297.72,-187 225.28,-187 225.28,-151 324.72,-151 324.72,-187"/>
<text text-anchor="middle" x="275" y="-164.8" font-family="Times,serif" font-size="14.00">SettingModule</text>
</g>
<!-- ChangePasswordComponent&#45;&gt;SettingModule -->
<g id="edge1" class="edge">
<title>ChangePasswordComponent&#45;&gt;SettingModule</title>
<path fill="none" stroke="black" d="M465,-122.11C465,-141.34 465,-169 465,-169 465,-169 334.92,-169 334.92,-169"/>
<polygon fill="black" stroke="black" points="334.92,-165.5 324.92,-169 334.92,-172.5 334.92,-165.5"/>
</g>
<!-- ResetPasswordComponent -->
<g id="node2" class="node">
<title>ResetPasswordComponent</title>
<polygon fill="#ffffb3" stroke="black" points="358.09,-122 191.91,-122 191.91,-86 358.09,-86 358.09,-122"/>
<text text-anchor="middle" x="275" y="-99.8" font-family="Times,serif" font-size="14.00">ResetPasswordComponent</text>
</g>
<!-- ResetPasswordComponent&#45;&gt;SettingModule -->
<g id="edge2" class="edge">
<title>ResetPasswordComponent&#45;&gt;SettingModule</title>
<path fill="none" stroke="black" d="M275,-122.11C275,-122.11 275,-140.99 275,-140.99"/>
<polygon fill="black" stroke="black" points="271.5,-140.99 275,-150.99 278.5,-140.99 271.5,-140.99"/>
</g>
<!-- SettingRoutingModule -->
<g id="node4" class="node">
<title>SettingRoutingModule</title>
<polygon fill="#8dd3c7" stroke="black" points="168.34,-122 165.34,-126 144.34,-126 141.34,-122 23.66,-122 23.66,-86 168.34,-86 168.34,-122"/>
<text text-anchor="middle" x="96" y="-99.8" font-family="Times,serif" font-size="14.00">SettingRoutingModule</text>
</g>
<!-- SettingRoutingModule&#45;&gt;SettingModule -->
<g id="edge3" class="edge">
<title>SettingRoutingModule&#45;&gt;SettingModule</title>
<path fill="none" stroke="black" d="M96,-122.11C96,-141.34 96,-169 96,-169 96,-169 215.14,-169 215.14,-169"/>
<polygon fill="black" stroke="black" points="215.14,-172.5 225.14,-169 215.14,-165.5 215.14,-172.5"/>
</g>
</g>
</svg>
